<svg data-v-0dd9719b="" version="1.0" xmlns="http://www.w3.org/2000/svg" xmlns:xlink="http://www.w3.org/1999/xlink" width="100%" height="100%" viewBox="0 0 340.000000 250.000000" preserveAspectRatio="xMidYMid meet" color-interpolation-filters="sRGB" style="margin: auto;"> <rect data-v-0dd9719b="" x="0" y="0" width="100%" height="100%" fill="#fff" fill-opacity="1" class="background"></rect> <rect data-v-0dd9719b="" x="0" y="0" width="100%" height="100%" fill="url(#watermark)" fill-opacity="1" class="watermarklayer"></rect> <g data-v-0dd9719b="" fill="#333" class="icon-text-wrapper icon-svg-group iconsvg" transform="translate(47.81500244140625,98.75328063964844)"><g class="iconsvg-imagesvg" transform="translate(0,0)"><g><rect fill="#333" fill-opacity="0" stroke-width="2" x="0" y="0" width="60" height="52.493438320209975" class="image-rect"></rect> <svg x="0" y="0" width="60" height="52.493438320209975" filtersec="colorsb3738137554" class="image-svg-svg primary" style="overflow: visible;"><svg xmlns="http://www.w3.org/2000/svg" viewBox="-0.0017365813255310059 -0.003803085535764694 73.46066284179688 64.26995086669922"><title>资源 29</title><path d="M37 .14c4.61 0 9.24.31 13.8-.1 3.62-.32 5.66 1.12 7.09 4.1 2.65 5.53 6 10.63 9 16 1.94 3.5 3.92 7 6 10.38a2.93 2.93 0 0 1 0 3.47c-1.59 2.59-3 5.26-4.55 7.89-1.14 2-1.39 2-2.51 0q-4.72-8.16-9.43-16.34c-2.26-3.91-4.56-7.8-6.75-11.75A3.18 3.18 0 0 0 46.43 12c-10.69.05-21.38 0-32.07 0-2.54 0-2.71-.28-1.46-2.45 1.44-2.51 2.93-5 4.28-7.53A3.23 3.23 0 0 1 20.52.11C26 .21 31.5.15 37 .14zM28.46 64.23c-2.75 0-5.5-.07-8.24 0a2.81 2.81 0 0 1-2.85-1.62Q13.23 55.41 9 48.22a2.81 2.81 0 0 1 0-3.12c1.63-2.74 3.26-5.48 4.79-8.27.88-1.62 1.51-1.47 2.34 0 2.57 4.51 5.23 9 7.73 13.5a3.8 3.8 0 0 0 4 2.29c5.05-.19 10.1-.07 15.15-.06 2.33 0 2.45.23 1.34 2.15-1.55 2.7-3.14 5.37-4.66 8.08a2.58 2.58 0 0 1-2.51 1.47c-2.93-.06-5.82-.03-8.72-.03z" fill="#0f4067"></path><path d="M23 15.56c0 .56-.37.94-.63 1.39C17.7 25 13.07 33.1 8.39 41.16c-.45.78-.72 2-1.88 2-1-.07-1.2-1.2-1.64-1.94a529.64 529.64 0 0 0-4.33-7.51C.11 33-.27 32.2.25 31.42 3.55 26.51 5.22 20.67 9 16a4 4 0 0 1 3.41-1.7c3 .12 6.07.19 9.1.28.68.06 1.42 0 1.49.98zM48.92 64h-4.66c-1.45 0-2.14-.23-1.16-1.9C48 53.73 52.8 45.34 57.61 37c.78-1.36 1.44-1.28 2.18 0 1.63 2.81 3.28 5.61 4.91 8.42a2.53 2.53 0 0 1-.12 2.72q-4.06 7-8 14a3.22 3.22 0 0 1-3.4 1.9c-1.39-.13-2.81 0-4.22 0z" fill="#8fc547"></path></svg></svg> <!----></g></g> <g transform="translate(67,11.046719551086426)"><g data-gra="path-name" fill-rule="" class="tp-name iconsvg-namesvg"><g transform="scale(1)"><g><path d="M13.79-2.39L13.79-2.39Q14.77-2.39 15.6-2.48 16.42-2.58 17.15-2.76 17.88-2.95 18.52-3.21 19.17-3.48 19.81-3.82L19.81-3.82 19.81-9.18 16.05-9.18Q15.72-9.18 15.53-9.36 15.33-9.55 15.33-9.82L15.33-9.82 15.33-11.69 22.8-11.69 22.8-2.36Q21.88-1.7 20.89-1.2 19.9-0.71 18.77-0.38 17.64-0.05 16.35 0.11 15.06 0.27 13.55 0.27L13.55 0.27Q10.91 0.27 8.7-0.64 6.5-1.54 4.9-3.18 3.31-4.82 2.42-7.11 1.53-9.4 1.53-12.14L1.53-12.14Q1.53-14.93 2.4-17.22 3.27-19.51 4.89-21.14 6.51-22.78 8.81-23.68 11.11-24.58 13.96-24.58L13.96-24.58Q15.4-24.58 16.64-24.37 17.88-24.15 18.94-23.76 20-23.36 20.9-22.79 21.8-22.22 22.58-21.51L22.58-21.51 21.64-20.02Q21.36-19.56 20.9-19.56L20.9-19.56Q20.63-19.56 20.3-19.74L20.3-19.74Q19.88-19.98 19.35-20.32 18.83-20.66 18.07-20.97 17.32-21.29 16.29-21.51 15.27-21.73 13.86-21.73L13.86-21.73Q11.81-21.73 10.14-21.06 8.48-20.39 7.31-19.14 6.14-17.89 5.51-16.12 4.89-14.35 4.89-12.14L4.89-12.14Q4.89-9.84 5.54-8.03 6.19-6.23 7.38-4.97 8.57-3.71 10.19-3.05 11.82-2.39 13.79-2.39ZM30.4 0L27.38 0 27.38-17.18 29.11-17.18Q29.6-17.18 29.79-17 29.97-16.81 30.04-16.35L30.04-16.35 30.24-13.67Q31.13-15.47 32.42-16.48 33.72-17.49 35.47-17.49L35.47-17.49Q36.18-17.49 36.76-17.33 37.33-17.17 37.83-16.88L37.83-16.88 37.43-14.62Q37.32-14.2 36.91-14.2L36.91-14.2Q36.67-14.2 36.18-14.36 35.69-14.52 34.81-14.52L34.81-14.52Q33.23-14.52 32.17-13.6 31.11-12.69 30.4-10.94L30.4-10.94 30.4 0ZM47.85-17.45L47.85-17.45Q49.39-17.45 50.7-16.94 52.01-16.42 52.96-15.44 53.91-14.47 54.44-13.04 54.97-11.6 54.97-9.77L54.97-9.77Q54.97-9.06 54.82-8.82 54.67-8.58 54.24-8.58L54.24-8.58 42.81-8.58Q42.85-6.95 43.25-5.75 43.66-4.55 44.37-3.74 45.08-2.93 46.07-2.54 47.05-2.14 48.27-2.14L48.27-2.14Q49.41-2.14 50.23-2.4 51.06-2.66 51.65-2.97 52.24-3.27 52.64-3.54 53.04-3.8 53.33-3.8L53.33-3.8Q53.7-3.8 53.91-3.51L53.91-3.51 54.75-2.41Q54.19-1.73 53.41-1.23 52.63-0.73 51.74-0.41 50.85-0.08 49.9 0.08 48.95 0.24 48.02 0.24L48.02 0.24Q46.24 0.24 44.74-0.36 43.24-0.97 42.14-2.13 41.05-3.29 40.44-5 39.83-6.72 39.83-8.94L39.83-8.94Q39.83-10.74 40.38-12.3 40.93-13.86 41.96-15 43-16.15 44.49-16.8 45.98-17.45 47.85-17.45ZM47.92-15.23L47.92-15.23Q45.73-15.23 44.47-13.97 43.22-12.7 42.91-10.47L42.91-10.47 52.26-10.47Q52.26-11.52 51.97-12.39 51.68-13.26 51.12-13.9 50.56-14.54 49.76-14.88 48.95-15.23 47.92-15.23ZM65.63-17.45L65.63-17.45Q67.17-17.45 68.48-16.94 69.78-16.42 70.73-15.44 71.68-14.47 72.22-13.04 72.75-11.6 72.75-9.77L72.75-9.77Q72.75-9.06 72.6-8.82 72.44-8.58 72.02-8.58L72.02-8.58 60.59-8.58Q60.62-6.95 61.03-5.75 61.44-4.55 62.15-3.74 62.86-2.93 63.84-2.54 64.83-2.14 66.05-2.14L66.05-2.14Q67.19-2.14 68.01-2.4 68.83-2.66 69.43-2.97 70.02-3.27 70.42-3.54 70.82-3.8 71.1-3.8L71.1-3.8Q71.48-3.8 71.68-3.51L71.68-3.51 72.53-2.41Q71.97-1.73 71.19-1.23 70.41-0.73 69.52-0.41 68.63-0.08 67.68 0.08 66.73 0.24 65.8 0.24L65.8 0.24Q64.01 0.24 62.51-0.36 61.01-0.97 59.92-2.13 58.82-3.29 58.21-5 57.6-6.72 57.6-8.94L57.6-8.94Q57.6-10.74 58.15-12.3 58.71-13.86 59.74-15 60.77-16.15 62.27-16.8 63.76-17.45 65.63-17.45ZM65.69-15.23L65.69-15.23Q63.51-15.23 62.25-13.97 61-12.7 60.69-10.47L60.69-10.47 70.04-10.47Q70.04-11.52 69.75-12.39 69.46-13.26 68.9-13.9 68.34-14.54 67.53-14.88 66.73-15.23 65.69-15.23ZM79.62 0L76.6 0 76.6-17.18 78.4-17.18Q79.04-17.18 79.21-16.55L79.21-16.55 79.45-14.69Q80.57-15.93 81.95-16.69 83.33-17.45 85.15-17.45L85.15-17.45Q86.56-17.45 87.63-16.99 88.71-16.52 89.43-15.66 90.15-14.81 90.53-13.6 90.9-12.4 90.9-10.94L90.9-10.94 90.9 0 87.88 0 87.88-10.94Q87.88-12.89 86.99-13.97 86.1-15.05 84.27-15.05L84.27-15.05Q82.93-15.05 81.76-14.4 80.6-13.76 79.62-12.65L79.62-12.65 79.62 0ZM113.07-5.02L113.07-5.02Q113.34-5.02 113.56-4.8L113.56-4.8 114.85-3.39Q113.36-1.66 111.23-0.7 109.1 0.27 106.1 0.27L106.1 0.27Q103.47 0.27 101.33-0.64 99.19-1.54 97.68-3.18 96.17-4.82 95.34-7.11 94.51-9.4 94.51-12.14L94.51-12.14Q94.51-14.89 95.4-17.18 96.29-19.47 97.9-21.12 99.52-22.76 101.76-23.67 104.01-24.58 106.72-24.58L106.72-24.58Q109.4-24.58 111.35-23.75 113.29-22.92 114.8-21.49L114.8-21.49 113.73-19.98Q113.61-19.81 113.46-19.7 113.31-19.59 113.02-19.59L113.02-19.59Q112.8-19.59 112.55-19.75 112.3-19.91 111.97-20.15 111.63-20.39 111.17-20.66 110.71-20.93 110.08-21.17 109.46-21.41 108.62-21.57 107.79-21.73 106.71-21.73L106.71-21.73Q104.76-21.73 103.14-21.06 101.52-20.39 100.35-19.15 99.18-17.91 98.52-16.13 97.87-14.35 97.87-12.14L97.87-12.14Q97.87-9.87 98.52-8.09 99.18-6.31 100.3-5.08 101.43-3.85 102.98-3.21 104.52-2.56 106.3-2.56L106.3-2.56Q107.39-2.56 108.25-2.69 109.12-2.82 109.85-3.09 110.59-3.36 111.23-3.77 111.86-4.19 112.51-4.77L112.51-4.77Q112.8-5.02 113.07-5.02ZM131.32-10.99L131.32 0 129.98 0Q129.54 0 129.27-0.14 129-0.27 128.91-0.71L128.91-0.71 128.57-2.31Q127.89-1.7 127.25-1.21 126.6-0.73 125.89-0.4 125.18-0.07 124.37 0.1 123.57 0.27 122.58 0.27L122.58 0.27Q121.58 0.27 120.71-0.01 119.84-0.29 119.19-0.85 118.55-1.41 118.17-2.26 117.78-3.12 117.78-4.29L117.78-4.29Q117.78-5.31 118.34-6.25 118.9-7.19 120.15-7.92 121.4-8.65 123.42-9.12 125.43-9.58 128.35-9.65L128.35-9.65 128.35-10.99Q128.35-12.99 127.49-14.02 126.64-15.05 124.96-15.05L124.96-15.05Q123.86-15.05 123.1-14.77 122.35-14.49 121.8-14.14 121.24-13.79 120.85-13.51 120.45-13.23 120.06-13.23L120.06-13.23Q119.75-13.23 119.52-13.39 119.29-13.55 119.16-13.79L119.16-13.79 118.61-14.76Q120.04-16.13 121.68-16.81 123.33-17.49 125.33-17.49L125.33-17.49Q126.77-17.49 127.89-17.01 129.01-16.54 129.78-15.69 130.54-14.84 130.93-13.64 131.32-12.43 131.32-10.99L131.32-10.99ZM123.48-1.85L123.48-1.85Q124.28-1.85 124.94-2.01 125.6-2.17 126.19-2.47 126.77-2.76 127.31-3.19 127.84-3.61 128.35-4.16L128.35-4.16 128.35-7.73Q126.26-7.67 124.81-7.4 123.35-7.14 122.43-6.72 121.52-6.29 121.1-5.72 120.68-5.14 120.68-4.43L120.68-4.43Q120.68-3.75 120.9-3.26 121.13-2.76 121.5-2.45 121.87-2.14 122.38-1.99 122.89-1.85 123.48-1.85ZM138.92 0L135.9 0 135.9-17.18 137.7-17.18Q138.34-17.18 138.51-16.55L138.51-16.55 138.73-14.79Q139.68-15.96 140.86-16.71 142.04-17.45 143.6-17.45L143.6-17.45Q145.35-17.45 146.42-16.49 147.5-15.52 147.98-13.87L147.98-13.87Q148.33-14.81 148.92-15.49 149.5-16.16 150.23-16.61 150.96-17.05 151.78-17.25 152.61-17.45 153.45-17.45L153.45-17.45Q154.81-17.45 155.87-17.02 156.93-16.59 157.67-15.76 158.41-14.93 158.8-13.71 159.19-12.5 159.19-10.94L159.19-10.94 159.19 0 156.17 0 156.17-10.94Q156.17-12.96 155.29-14 154.4-15.05 152.73-15.05L152.73-15.05Q151.98-15.05 151.31-14.78 150.64-14.52 150.13-14.01 149.62-13.5 149.32-12.73 149.03-11.96 149.03-10.94L149.03-10.94 149.03 0 146.01 0 146.01-10.94Q146.01-13.01 145.18-14.03 144.35-15.05 142.75-15.05L142.75-15.05Q141.63-15.05 140.67-14.44 139.72-13.84 138.92-12.81L138.92-12.81 138.92 0ZM166.77 5.82L163.75 5.82 163.75-17.18 165.55-17.18Q166.19-17.18 166.36-16.55L166.36-16.55 166.62-14.52Q167.72-15.86 169.14-16.67 170.55-17.49 172.4-17.49L172.4-17.49Q173.88-17.49 175.08-16.92 176.29-16.35 177.13-15.24 177.98-14.13 178.44-12.48 178.9-10.84 178.9-8.7L178.9-8.7Q178.9-6.8 178.39-5.16 177.88-3.53 176.93-2.33 175.98-1.14 174.6-0.45 173.22 0.24 171.49 0.24L171.49 0.24Q169.89 0.24 168.76-0.29 167.63-0.81 166.77-1.78L166.77-1.78 166.77 5.82ZM171.4-15.05L171.4-15.05Q169.92-15.05 168.81-14.37 167.7-13.69 166.77-12.45L166.77-12.45 166.77-4.14Q167.6-3.02 168.59-2.56 169.59-2.1 170.81-2.1L170.81-2.1Q173.2-2.1 174.49-3.82 175.78-5.53 175.78-8.7L175.78-8.7Q175.78-10.38 175.48-11.58 175.18-12.79 174.62-13.56 174.06-14.33 173.25-14.69 172.43-15.05 171.4-15.05Z" transform="translate(-1.5299999713897705, 24.579999923706055)"></path></g> <!----> <!----> <!----> <!----> <!----> <!----> <!----></g></g> <!----></g></g><defs v-gra="od"></defs></svg>